<?xml version="1.0" encoding="utf-8"?>
<!-- Generator: Adobe Illustrator 23.0.2, SVG Export Plug-In . SVG Version: 6.00 Build 0)  -->
<svg version="1.1" id="Ebene_1" xmlns="http://www.w3.org/2000/svg" xmlns:xlink="http://www.w3.org/1999/xlink" x="0px" y="0px"
	 viewBox="0 0 78 78" style="enable-background:new 0 0 78 78;" xml:space="preserve">
<style type="text/css">
	.st0{fill:#93D4EE;}
	.st1{fill:#026F30;}
	.st2{fill:#FFFFFF;}
	.st3{fill:#366733;}
	.st4{clip-path:url(#SVGID_2_);}
	.st5{fill:#FF5C51;}
	.st6{enable-background:new    ;}
	.st7{fill:#519839;}
	.st8{fill:#3363AC;}
	.st9{fill:#6F3E30;}
	.st10{fill:#2B9B66;}
	.st11{fill:#2D9545;}
	.st12{fill:#249B84;}
	.st13{fill:#00959D;}
	.st14{fill:#F7A941;}
	.st15{fill:#FBB800;}
	.st16{fill:#B28DBA;}
	.st17{fill:#EE7325;}
</style>
<g id="Gruppe_5_1_" transform="translate(-649.258 187.984)">
	<path id="Pfad_12_1_" class="st1" d="M727.2-149c0,21.5-17.5,39-39,39c0,0,0,0,0,0c-21.5,0-39-17.5-39-39c0-21.5,17.5-39,39-39
		c0,0,0,0,0,0C709.8-188,727.2-170.5,727.2-149C727.2-149,727.2-149,727.2-149L727.2-149"/>
</g>
<path class="st2" d="M52.9,63H25c-5.6,0-10.1-4.5-10.1-10.1V25c0-5.6,4.5-10.1,10.1-10.1h27.9C58.5,14.9,63,19.5,63,25v27.9
	C63,58.5,58.5,63,52.9,63z M25,18.2c-3.8,0-6.8,3.1-6.8,6.8v27.9c0,3.8,3.1,6.8,6.8,6.8h27.9c3.8,0,6.8-3.1,6.8-6.8V25
	c0-3.8-3.1-6.8-6.8-6.8H25z"/>
<path class="st2" d="M39,52.4c-7.4,0-13.5-6-13.5-13.5c0-7.4,6-13.5,13.5-13.5s13.5,6,13.5,13.5C52.4,46.4,46.4,52.4,39,52.4z
	 M39,28.8c-5.6,0-10.2,4.6-10.2,10.2S33.4,49.2,39,49.2S49.2,44.6,49.2,39S44.6,28.8,39,28.8z"/>
<path id="Rechteck_13_1_" class="st2" d="M52.9,22.2L52.9,22.2c1.6,0,2.9,1.3,2.9,2.9v0c0,1.6-1.3,2.9-2.9,2.9h0
	c-1.6,0-2.9-1.3-2.9-2.9v0C50,23.5,51.3,22.2,52.9,22.2z"/>
</svg>
