<?xml version="1.0" encoding="utf-8"?>
<!-- Generator: Adobe Illustrator 23.0.2, SVG Export Plug-In . SVG Version: 6.00 Build 0)  -->
<svg version="1.1" id="Ebene_1" xmlns="http://www.w3.org/2000/svg" xmlns:xlink="http://www.w3.org/1999/xlink" x="0px" y="0px"
	 viewBox="0 0 78 78" style="enable-background:new 0 0 78 78;" xml:space="preserve">
<style type="text/css">
	.st0{fill:#93D4EE;}
	.st1{fill:#026F30;}
	.st2{fill:#FFFFFF;}
	.st3{fill:#366733;}
	.st4{clip-path:url(#SVGID_2_);}
	.st5{fill:#FF5C51;}
	.st6{enable-background:new    ;}
	.st7{fill:#519839;}
	.st8{fill:#3363AC;}
	.st9{fill:#6F3E30;}
	.st10{fill:#2B9B66;}
	.st11{fill:#2D9545;}
	.st12{fill:#249B84;}
	.st13{fill:#00959D;}
	.st14{fill:#F7A941;}
	.st15{fill:#FBB800;}
	.st16{fill:#B28DBA;}
	.st17{fill:#EE7325;}
</style>
<g id="Gruppe_8_1_" transform="translate(-748.135 187.986)">
	<path id="Pfad_15_1_" class="st3" d="M826.1-149c0,21.5-17.5,39-39,39c0,0,0,0,0,0c-21.5,0-39-17.5-39-39c0-21.5,17.5-39,39-39
		C808.6-188,826.1-170.5,826.1-149C826.1-149,826.1-149,826.1-149L826.1-149"/>
</g>
<g id="Gruppe_11_1_" transform="translate(-748.135 187.986)">
	<circle id="Ellipse_1_1_" class="st1" cx="787.1" cy="-149" r="39"/>
	<g>
		<defs>
			<circle id="SVGID_1_" cx="787.1" cy="-149" r="39"/>
		</defs>
		<clipPath id="SVGID_2_">
			<use xlink:href="#SVGID_1_"  style="overflow:visible;"/>
		</clipPath>
		<g id="Gruppe_10_1_" class="st4">
			<g id="_1KF2bg_1_">
				<g id="Gruppe_9_1_">
					<path class="st2" d="M791.7-106.5L791.7-106.5l-12.2,0c-0.9,0-1.6-0.7-1.6-1.6l0-0.3c0-0.3,0-0.5,0-0.8v-26.7l-0.9,0
						c-0.9,0-1.9,0-2.8,0c-0.7,0-1.3-0.2-1.8-0.6c-0.4-0.4-0.7-1-0.7-1.8c0-2.9,0-5.9,0-8.8c0-0.7,0.2-1.3,0.6-1.7
						c0.4-0.4,1-0.6,1.7-0.6c1,0,2.1,0,3.1,0l0.7,0v-3.7c-0.1-2.1,0.2-4.3,0.7-6.4c1.1-4.5,4.8-7.9,9.4-8.6c1.4-0.3,2.9-0.4,4.5-0.5
						c1.5,0,3.1,0,4.6,0c1,0,2,0,3,0c0.3,0,1.2,0,1.8,0.7c0.4,0.4,0.7,1,0.6,1.8c0,2.9,0,5.8,0,8.7c0,0.3,0,1.1-0.6,1.8
						c-0.6,0.7-1.5,0.6-1.8,0.6l-0.7,0c-1.6,0-3.3,0-4.9,0.1c-0.9,0.1-1,0.1-1,1.1c0,1-0.1,2-0.1,2.9c0,0.5,0,1,0,1.5
						c1.3,0,2.5,0,3.8,0c1,0,2,0,3,0c0,0,0,0,0,0c0.4,0,1.2,0,1.8,0.7c0.3,0.3,0.6,0.9,0.5,1.7c-0.3,3-0.7,6-1,9
						c-0.1,1.3-1,2.1-2.3,2.1c0,0,0,0,0,0c-1.7,0-3.3,0-5,0l-0.9,0v26.7c0,0.2,0,0.5,0,0.7l0,0.2
						C793.2-107.2,792.5-106.5,791.7-106.5z M781.1-109.8l9,0v-27.6c0-0.9,0.7-1.6,1.6-1.6l2.5,0c1.4,0,2.8,0,4.1,0
						c0.2-2.3,0.5-4.7,0.8-7c-0.7,0-1.3,0-1.9,0c-1.6,0-3.1,0-4.7,0c-0.3,0-1.2,0-1.8-0.7c-0.7-0.7-0.6-1.5-0.6-1.8
						c0-0.8,0-1.6,0.1-2.4c0-1,0-2,0.1-3.1c0.1-2.7,1.5-4,4.1-4.2c1.7-0.1,3.3-0.1,5-0.1c0-2.3,0-4.7,0-7c-0.8,0-1.5,0-2.2,0
						c-1.5,0-3,0-4.5,0c-1.3,0-2.7,0.2-4,0.4c-3.4,0.5-6,2.9-6.8,6.1c-0.5,1.8-0.7,3.7-0.6,5.6l0,5.4c0,0.9-0.7,1.6-1.6,1.6l-0.3,0
						c-0.2,0-0.4,0-0.6,0l-1.5,0c-0.7,0-1.4,0-2.1,0c0,2.3,0,4.7,0,7c0.7,0,1.3,0,2,0l2.5,0c0.9,0,1.6,0.7,1.6,1.6V-109.8z"/>
				</g>
			</g>
		</g>
	</g>
</g>
</svg>
