<?xml version="1.0" encoding="utf-8"?>
<!-- Generator: Adobe Illustrator 23.0.2, SVG Export Plug-In . SVG Version: 6.00 Build 0)  -->
<svg version="1.1" id="Ebene_1" xmlns="http://www.w3.org/2000/svg" xmlns:xlink="http://www.w3.org/1999/xlink" x="0px" y="0px"
	 viewBox="0 0 78 78" style="enable-background:new 0 0 78 78;" xml:space="preserve">
<style type="text/css">
	.st0{fill:#93D4EE;}
	.st1{fill:#026F30;}
	.st2{fill:#FFFFFF;}
	.st3{fill:#366733;}
	.st4{clip-path:url(#SVGID_2_);}
	.st5{fill:#FF5C51;}
	.st6{enable-background:new    ;}
	.st7{fill:#519839;}
	.st8{fill:#3363AC;}
	.st9{fill:#6F3E30;}
	.st10{fill:#2B9B66;}
	.st11{fill:#2D9545;}
	.st12{fill:#249B84;}
	.st13{fill:#00959D;}
	.st14{fill:#F7A941;}
	.st15{fill:#FBB800;}
	.st16{fill:#B28DBA;}
	.st17{fill:#EE7325;}
</style>
<g id="Gruppe_6" transform="translate(-847.013 187.984)">
	<path id="Pfad_13" class="st1" d="M925-149c0,21.5-17.5,39-39,39c0,0,0,0,0,0c-21.5,0-39-17.5-39-39c0-21.5,17.5-39,39-39
		c0,0,0,0,0,0C907.5-188,925-170.5,925-149C925-149,925-149,925-149L925-149"/>
</g>
<g id="hLCnsM.tif" transform="translate(-847.013 187.984)">
	<g id="Gruppe_12">
		<path id="Pfad_17" class="st2" d="M873.8-156.1c-0.1-1.2,0.3-2.4,1-3.3c0.4-0.6,0.9-1.1,1.3-1.6c0.3-0.4,0.8-0.6,1.4-0.6
			c0.6,0,1.2,0,1.8,0.1c0.5,0,0.9,0.3,1.1,0.8c0.3,0.7,0.6,1.4,0.9,2.1c0.4,1,0.8,2,1.2,3c0.3,0.7,0.2,1.5-0.3,2
			c-0.4,0.5-0.8,1-1.3,1.5c-0.5,0.5-0.5,1.2-0.2,1.7c1.1,1.8,2.5,3.4,4.1,4.9c1,0.9,2.2,1.6,3.4,2.2c0.6,0.3,1.1,0.5,1.7,0.8
			c0.5,0.3,1.2,0.2,1.5-0.3c0,0,0,0,0,0c0.6-0.7,1.2-1.5,1.8-2.2c0.1-0.1,0.2-0.2,0.3-0.4c0.3-0.4,0.9-0.5,1.3-0.3
			c0.7,0.3,1.3,0.6,2,0.9c1.1,0.5,2.1,1,3.2,1.6c0.9,0.4,1,0.6,0.9,1.6c-0.1,0.6-0.2,1.2-0.4,1.8c-0.1,0.5-0.4,0.9-0.7,1.2
			c-1,1-2.2,1.8-3.6,2.2c-0.8,0.2-1.6,0.2-2.4,0.1c-2.3-0.3-4.6-1.1-6.8-2.1c-1.5-0.7-2.9-1.5-4.2-2.6c-0.9-0.8-1.8-1.6-2.6-2.5
			c-1.1-1.1-2.1-2.3-3.1-3.5c-1.2-1.4-2.2-3-2.8-4.8c-0.3-0.9-0.5-1.9-0.6-2.8C873.8-155.1,873.8-155.6,873.8-156.1L873.8-156.1z"/>
	</g>
</g>
<path class="st2" d="M40.4,64.4c-4.6,0-9-1.2-13-3.6l-6.7,2.3c-0.5,0.2-1.1,0.1-1.6-0.3c-0.4-0.4-0.7-0.9-0.6-1.5l1.1-7.6
	C16.7,49.5,15,44.3,15,39c0-14,11.4-25.4,25.4-25.4l0,0c14,0,25.4,11.4,25.4,25.4C65.9,53,54.5,64.4,40.4,64.4
	C40.4,64.4,40.4,64.4,40.4,64.4z M27.6,57.4c0.3,0,0.6,0.1,0.9,0.3c3.6,2.3,7.7,3.5,11.9,3.5c0,0,0,0,0,0c5.9,0,11.5-2.3,15.7-6.5
	c4.2-4.2,6.5-9.7,6.5-15.7c0-12.2-9.9-22.2-22.2-22.2c-12.2,0-22.1,9.9-22.2,22.2c0,4.8,1.6,9.6,4.5,13.4c0.3,0.4,0.4,0.8,0.3,1.2
	l-0.8,5.6l4.8-1.7C27.3,57.4,27.5,57.4,27.6,57.4z"/>
</svg>
