<?xml version="1.0" encoding="utf-8"?>
<!-- Generator: Adobe Illustrator 23.0.2, SVG Export Plug-In . SVG Version: 6.00 Build 0)  -->
<svg version="1.1" id="Ebene_1" xmlns="http://www.w3.org/2000/svg" xmlns:xlink="http://www.w3.org/1999/xlink" x="0px" y="0px"
	 viewBox="0 0 399.7 93.8" style="enable-background:new 0 0 399.7 93.8;" xml:space="preserve">
<style type="text/css">
	.st0{fill:#93D4EE;}
	.st1{fill:#026F30;}
	.st2{fill:#FFFFFF;}
	.st3{fill:#366733;}
	.st4{clip-path:url(#SVGID_2_);}
	.st5{fill:#FF5C51;}
	.st6{enable-background:new    ;}
	.st7{fill:#519839;}
	.st8{fill:#3363AC;}
	.st9{fill:#6F3E30;}
	.st10{fill:#2B9B66;}
	.st11{fill:#2D9545;}
	.st12{fill:#249B84;}
	.st13{fill:#00959D;}
	.st14{fill:#F7A941;}
	.st15{fill:#FBB800;}
	.st16{fill:#B28DBA;}
	.st17{fill:#EE7325;}
</style>
<g id="Gruppe_1" transform="translate(-795.26 -128)">
	<path id="Pfad_1" class="st1" d="M830.3,169.7v-4.4c0-5.1,0-5.1-4.9-6.3c-8.3-2.1-14.5,1.4-16.2,9.2c-0.3,1.7-0.4,3.4-0.2,5.2
		c0.6,7.3,6.2,11.7,13.3,10.6c4.7-0.5,8.1-4.5,8-9.2L830.3,169.7z M833.6,189.2c-8.2,8.6-21.8,9-30.5,0.9c-3.9-3.6-6.4-8.5-7.2-13.7
		c-1.1-6.7-0.4-13.2,3.3-19c5-8,12.4-11.2,21.6-10.7c3.1,0.2,6.3,0.9,9.5,1.4v-16.7c0-2.8,0.6-3.4,3.4-3.4c2.2,0,4.4,0,6.7,0
		c2.1,0,2.8,0.7,2.9,2.9c0,0.4,0,0.8,0,1.2c0,19.7,0,39.5,0,59.2c0,1.8,0.4,4.1-2.2,4.1c-5,0.2-5.3,0.7-6.5-3
		C834.2,191.4,833.9,190.4,833.6,189.2"/>
	<path id="Pfad_2" class="st1" d="M1181.7,171.1c-0.1-1.5-0.1-3.1,0-4.6c0.2-1.8-0.6-3.6-1.9-4.8c-3.1-3.3-6.9-4-11.1-3.1
		c-4.2,0.9-6.7,3.8-7.9,7.7c-0.4,1.3-0.7,2.7-0.7,4.1c-0.2,8.2,4.4,14.9,13.7,13.4c4.9-0.7,7.9-4,7.9-9L1181.7,171.1z M1184.4,152.3
		c0.1-0.2,0.3-0.3,0.3-0.4c0.9-4.3,3.8-4.8,7.5-4.4c2.1,0.2,2.8,0.9,2.9,3c0,3.6,0,7.1,0,10.6c0,10.4,0,20.8,0,31.3
		c0,2.5-0.7,3.2-3,3.2c-5.5-0.1-5.3,1.1-7.1-5.1c-0.1-0.4-0.3-0.8-0.5-1.1c-2.8,3.2-6.6,5.4-10.8,6.2c-8.4,1.5-15.4-1.1-20.8-7.7
		c-7.5-9.1-7.7-23.3-0.6-32.7c7.1-9.6,20.6-11.6,30.1-4.5C1183.1,151.2,1183.7,151.7,1184.4,152.3"/>
	<path id="Pfad_3" class="st1" d="M993.1,171.2v-3.8c0-4.1-1.8-6.9-5.7-8.4c-5.7-2.1-14-0.5-15.6,9.4c-1.3,8.1,3,16.9,13.2,15.4
		c5.1-0.7,8.2-4.1,8.2-9.2V171.2z M995.8,189.2c-6.2,6.4-13.4,8.3-21.5,5.6c-8.5-2.8-13.3-9.3-15.2-17.8c-1.5-6.4-0.6-13,2.5-18.8
		c6.9-12.9,23.3-15.9,34.1-6c0.4-0.7,0.8-1.4,1-2.2c0.6-2.1,2-2.7,4.1-2.6c5.4,0.1,5.4,0,5.4,5.4v38.8c0,3.5-0.4,4-4,4
		c-0.6,0-1.1,0-1.7,0c-2.2,0.3-3.4-0.8-3.8-2.9C996.6,191.6,996.2,190.6,995.8,189.2"/>
	<path id="Pfad_4" class="st1" d="M916.8,154.2c2.9-3.4,7-5.7,11.4-6.4c3.9-0.7,7.9-0.3,11.7,0.9c6.3,2.3,9.3,7.2,10.3,13.4
		c0.4,3.4,0.6,6.8,0.6,10.2c0.1,6.6,0,13.2,0,19.8c0,2.7-0.7,3.3-3.3,3.4c-2.2,0-4.3,0-6.5,0c-2.5,0-3.2-0.7-3.2-3.2
		c0-8.2,0-16.4-0.1-24.6c-0.1-5.4-3.2-8.5-8.3-8.3c-5.5,0.2-9.7,4.1-9.7,9.1v23.8c0,2.8-0.5,3.3-3.2,3.3c-2.2,0-4.3,0-6.5,0
		c-2.6,0-3.3-0.7-3.3-3.3c0-1.6,0-3.2,0-4.8c0-11.7,0-23.5,0-35.2c0-3.3,0.4-3.8,3.7-3.7c4.3,0,3.7-0.7,5.4,3.7
		C916.2,152.8,916.4,153.3,916.8,154.2"/>
	<path id="Pfad_5" class="st1" d="M1093.1,189.3c-3.4,3.3-7.1,5.8-11.7,6.4c-7.9,1-15.8-1-18.7-8.5c-1.1-2.9-1.7-6-1.8-9.1
		c-0.2-8.9-0.1-17.9-0.1-26.9c0-2.2,0.6-2.8,2.9-2.8c2.3,0,4.6,0,6.9,0c2.4,0,3.1,0.7,3.1,3.1c0,7.7,0,15.4,0,23.1
		c0,1,0,2.1,0.2,3.1c0.7,3.8,2.4,5.7,5.5,6.2c4,0.7,6.9-0.4,8.6-3.8c1-2,1.7-4.2,1.8-6.5c0.2-7.4,0.1-14.7,0.1-22.1
		c0-2.7,0.5-3.1,3.2-3.1c2.3,0,4.6,0.1,6.9,0c2-0.1,2.8,0.9,2.9,2.7c0.1,1.3,0,2.6,0,4c0,12.2,0,24.4,0,36.7c0,3.2-0.6,3.8-3.7,3.8
		c-4.2,0-4.2,0-5.3-4.1C1093.5,190.8,1093.4,190.2,1093.1,189.3"/>
	<path id="Pfad_6" class="st1" d="M885.8,189.4c-0.9,0.7-1.5,1.2-2.1,1.8c-6,5-12.8,5.9-20.1,3.6c-6-1.9-8.7-6.6-9.5-12.5
		c-0.4-4.1-0.6-8.1-0.6-12.2c-0.1-6.1,0-12.2,0-18.3c0-2.8,0.6-3.3,3.3-3.3c2.2,0,4.3,0,6.5,0c2.6,0,3.3,0.7,3.3,3.4
		c0,7.8,0,15.7,0,23.5c0,1,0.1,1.9,0.2,2.9c0.6,3,2.1,5.1,5.3,5.7c3.5,0.7,6.7-0.1,8.4-3.3c1.1-2,1.8-4.2,1.9-6.4
		c0.2-7.4,0.1-14.7,0.1-22.1c0-3.1,0.6-3.6,3.6-3.7h6c2.8,0,3.3,0.4,3.3,3.2c0,10.6,0,21.2,0,31.9c0,3,0,6,0,9c0,2.5-0.6,3-3.1,3
		c-0.6,0-1.3-0.1-1.9,0c-1.6,0.4-3.1-0.6-3.5-2.2c0-0.2-0.1-0.3-0.1-0.5C886.6,191.8,886.2,190.8,885.8,189.4"/>
	<path id="Pfad_7" class="st1" d="M1022.8,147.5c0-3.8,0-7.2,0-10.7c0-2.4,0.8-3.2,3.2-3.3c2.2,0,4.4,0,6.7,0c2.3,0,3,0.8,3,3
		c0,3.5,0,7.1,0,10.9h8.6c4.6,0,4.7,0.1,4.7,4.8c0,1.2,0,2.4,0,3.5c0,2.4-0.9,3.3-3.3,3.3c-3.3,0-6.5,0-9.9,0c0,0.7-0.1,1.3-0.1,1.9
		c0,6.2,0,12.5,0,18.8c0,3.2,1.1,4.4,4.3,4c2.2-0.3,4.4-0.7,6.5-1.4c1.7-0.5,2.6,0,3,1.8s0.8,3.5,1.2,5.3c0.3,1.4,0.1,2.7-1.3,3.4
		c-5.2,2.2-10.5,3.7-16.2,2.8c-6.6-1-10.1-5.6-10.3-13c-0.1-7,0-14-0.1-21v-2.5c-1.4,0-2.7,0-3.9,0c-1.8,0-2.8-0.9-2.8-2.8
		c0.1-2.1,0.1-4.2,0-6.3c-0.1-1.9,0.9-2.7,2.7-2.6C1020.1,147.5,1021.3,147.5,1022.8,147.5"/>
	<path id="Pfad_8" class="st1" d="M845.3,221.8h-46.7c-2.7,0-3.2-0.6-3.3-3.3c-0.2-6.3-0.2-6.3,6.1-6.3h90.4c3.2,0,3.5,0.3,3.5,3.4
		c0,1,0,2.1,0,3.1c0,2.6-0.4,3-3,3L845.3,221.8L845.3,221.8z"/>
	<path id="Pfad_9" class="st1" d="M1123.5,154.4c2.9-3.5,6.1-6.2,10.3-6.5c3.2-0.2,6.5,0.1,9.6,0.8c2.4,0.5,2.8,2.1,1.9,4.3
		c-0.8,1.9-1.7,3.8-2.5,5.7c-0.7,1.7-1.8,2.2-3.6,1.5c-3.7-1.5-7.9-0.8-10.9,1.9c-1.3,1-2,2.5-1.9,4.1c0.1,8.8,0,17.5,0,26.2
		c0,2.7-0.4,3.1-3.2,3.1c-2.2,0-4.3,0-6.5,0c-2.5,0-3.3-0.8-3.3-3.4c0-8.8,0-17.6,0-26.5c0-4.7,0-9.3,0-14c0-2.6,0.7-3.3,3.4-3.3
		h0.4c3.9,0,3.9,0,5.4,3.8C1122.8,152.9,1123.1,153.5,1123.5,154.4"/>
</g>
</svg>
