<?xml version="1.0" encoding="utf-8"?>
<!-- Generator: Adobe Illustrator 23.0.2, SVG Export Plug-In . SVG Version: 6.00 Build 0)  -->
<svg version="1.1" id="Ebene_1" xmlns="http://www.w3.org/2000/svg" xmlns:xlink="http://www.w3.org/1999/xlink" x="0px" y="0px"
	 viewBox="0 0 78 78" style="enable-background:new 0 0 78 78;" xml:space="preserve">
<style type="text/css">
	.st0{fill:#93D4EE;}
	.st1{fill:#026F30;}
	.st2{fill:#FFFFFF;}
	.st3{fill:#366733;}
	.st4{clip-path:url(#SVGID_2_);}
	.st5{fill:#FF5C51;}
	.st6{enable-background:new    ;}
	.st7{fill:#519839;}
	.st8{fill:#3363AC;}
	.st9{fill:#6F3E30;}
	.st10{fill:#2B9B66;}
	.st11{fill:#2D9545;}
	.st12{fill:#249B84;}
	.st13{fill:#00959D;}
	.st14{fill:#F7A941;}
	.st15{fill:#FBB800;}
	.st16{fill:#B28DBA;}
	.st17{fill:#EE7325;}
</style>
<g id="Gruppe_7_1_" transform="translate(-550.38 187.984)">
	<path id="Pfad_14_1_" class="st1" d="M628.4-149c0,21.5-17.5,39-39,39c0,0,0,0,0,0c-21.5,0-39-17.5-39-39c0-21.5,17.5-39,39-39
		c0,0,0,0,0,0C610.9-188,628.3-170.5,628.4-149C628.4-149,628.4-149,628.4-149L628.4-149"/>
</g>
<path class="st2" d="M63,57.2H15c-0.9,0-1.6-0.7-1.6-1.6V22.2c0-0.9,0.7-1.6,1.6-1.6h48c0.9,0,1.6,0.7,1.6,1.6v33.4
	C64.6,56.4,63.9,57.2,63,57.2z M16.6,53.9h44.8V23.8H16.6V53.9z"/>
<path class="st2" d="M64.1,54.3L45.4,38.4h0l18.6-15c0.5-0.4,0.7-1.2,0.5-1.8c-0.2-0.7-0.8-1.1-1.5-1.1H15c-0.7,0-1.3,0.4-1.5,1.1
	c-0.2,0.7,0,1.4,0.5,1.8l18.6,15L13.9,54.3c-0.5,0.4-0.7,1.2-0.5,1.8c0.2,0.6,0.8,1.1,1.5,1.1h48c0.7,0,1.3-0.4,1.5-1.1
	C64.8,55.5,64.6,54.7,64.1,54.3z M19.6,23.8h38.8L39,39.5L19.6,23.8z M19.4,53.9l15.7-13.4l2.8,2.3c0.3,0.2,0.7,0.4,1,0.4
	c0.4,0,0.7-0.1,1-0.4l2.9-2.3l15.7,13.4H19.4z"/>
</svg>
